# xmcd CD database file
#
# Track frame offsets:
#	150
#	25778
#	42656
#	63341
#	80362
#	105616
#	130501
#	146222
#	166571
#	189639
#	215041
#	238805
#	260319
#	273293
#	298401
#	320672
#	336347
#
# Disc length: 4781 seconds
#
# Revision: 0
# Processed by: cddbd v1.5.2PL0 Copyright (c) Steve Scherf et al.
# Submitted via: CDex 1.70beta2
#
DISCID=0612ab11
DTITLE=Ruby Braff and Ellis Larkins - The Complete Duets
DYEAR=1955
DGENRE=Jazz
TTITLE0=Love For Sale
TTITLE1=I've Got A Pocketful Of Dreams
TTITLE2=Blues For Ruby
TTITLE3=I've Got The World On A String
TTITLE4=Please
TTITLE5=Old Folks
TTITLE6=Blues For Ellis
TTITLE7=What Is There To Say?
TTITLE8=When A Women Loves A Man
TTITLE9=You Are Too Beautiful
TTITLE10=Skylark
TTITLE11=Sailboat In The Moonlight
TTITLE12=A City Called Heaven
TTITLE13=My Funnt Valentine
TTITLE14=Where Or When
TTITLE15=I Could Write A Book
TTITLE16=Little Girl Blue
EXTD=YEAR: 1955
EXTT0=
EXTT1=
EXTT2=
EXTT3=
EXTT4=
EXTT5=
EXTT6=
EXTT7=
EXTT8=
EXTT9=
EXTT10=
EXTT11=
EXTT12=
EXTT13=
EXTT14=
EXTT15=
EXTT16=
PLAYORDER=
